<?xml version="1.0" standalone="no"?>
<!DOCTYPE svg PUBLIC "-//W3C//DTD SVG 20010904//EN"
 "http://www.w3.org/TR/2001/REC-SVG-20010904/DTD/svg10.dtd">
<svg version="1.0" xmlns="http://www.w3.org/2000/svg"
 width="115.000000pt" height="115.000000pt" viewBox="0 0 115.000000 115.000000"
 preserveAspectRatio="xMidYMid meet">
<metadata>
Created by potrace 1.14, written by Peter Selinger 2001-2017
</metadata>
<g transform="translate(0.000000,115.000000) scale(0.100000,-0.100000)"
fill="#000000" stroke="none">
<path d="M313 1088 c-41 -11 -63 -51 -63 -114 0 -36 -3 -45 -15 -40 -8 3 -28
0 -45 -6 -38 -13 -55 -50 -39 -81 16 -30 28 -37 67 -37 30 0 32 -2 32 -36 0
-29 -8 -44 -44 -78 -72 -71 -76 -95 -22 -145 50 -46 33 -63 -65 -66 -72 -2
-99 -15 -99 -47 0 -46 17 -58 85 -58 106 0 133 -54 37 -75 -48 -10 -68 -58
-36 -89 11 -11 35 -16 80 -16 l64 0 0 -35 c0 -49 24 -91 57 -102 33 -11 508
-10 540 0 27 10 53 64 53 114 l0 39 57 1 c42 1 60 5 70 19 27 37 10 84 -31 84
-32 1 -58 26 -58 54 0 43 17 53 93 58 55 3 74 8 85 23 37 51 0 103 -74 103
-26 0 -50 1 -55 1 -4 1 0 12 9 26 9 14 14 29 10 32 -3 4 3 17 15 29 44 47 5
94 -78 94 l-43 0 0 64 c0 70 5 76 66 76 40 0 74 29 74 63 0 43 -33 65 -95 63
-37 -1 -41 2 -57 35 -11 27 -25 40 -50 47 -40 12 -479 12 -525 0z"/>
<path d="M43 657 c-30 -13 -30 -51 -1 -71 19 -13 25 -14 43 -2 45 30 7 96 -42
73z"/>
</g>
</svg>
